<?xml version="1.0" encoding="utf-8"?>
<!-- Generator: Adobe Illustrator 22.1.0, SVG Export Plug-In . SVG Version: 6.00 Build 0)  -->
<svg version="1.1" id="Layer_1" xmlns="http://www.w3.org/2000/svg" xmlns:xlink="http://www.w3.org/1999/xlink" x="0px" y="0px"
	 viewBox="0 0 51.5 49.5" width="52" height="50" style="enable-background:new 0 0 51.5 49.5;" xml:space="preserve">
<style type="text/css">
	.st0{fill:#826550;}
</style>
<g id="XMLID_1_">
	<g>
		<path class="st0" d="M25.7,19.3c-1.1,1.1-2.8,1.6-4.9,1.9c-1.9,0.3-3.6,0.1-4.7,1.2c-1.1,1-2,3.7-1.7,5.6c0.3,1.6,1.7,3.4,3.4,3.5
			c3,0.2,4.5-4.4,7.9-4.4c3.4,0,4.9,4.6,7.9,4.4c1.7-0.1,3.1-1.9,3.4-3.5c0.3-1.9-0.6-4.6-1.7-5.6c-1.1-1.1-2.8-0.9-4.7-1.2
			C28.5,21,26.8,20.4,25.7,19.3z M51.5,2.4c0,1.9-0.5,21.5-1.9,28.4c-1.2,6.3-6.1,10.8-10.8,13.8c-3.3,2.1-8.5,4.8-13,4.8
			s-9.7-2.8-13-4.8c-4.7-3-9.6-7.5-10.8-13.8C0.5,23.9,0,4.4,0,2.4C0.2,1.6,0.3,0.7,0.6,0c0.1,0,0.2,0,0.2,0
			c2.3,7.7,2.9,17.1,9.4,20.6c1.2-3.4,4.1-4.9,7.4-6.4c2.1-0.9,4.6-2.6,6.6-2.6c0.5,0,1,0,1.5,0.3c0.5-0.3,1-0.3,1.5-0.3
			c2,0.1,4.5,1.7,6.6,2.6c3.3,1.5,6.3,3,7.4,6.4c6.4-3.6,7-13,9.4-20.6c0.1,0,0.2,0,0.2,0C51.2,0.7,51.3,1.6,51.5,2.4z"/>
	</g>
	<g>
	</g>
</g>
</svg>
