<?xml version="1.0" encoding="utf-8"?>
<!-- Generator: Adobe Illustrator 22.1.0, SVG Export Plug-In . SVG Version: 6.00 Build 0)  -->
<svg version="1.1" id="Layer_1" xmlns="http://www.w3.org/2000/svg" xmlns:xlink="http://www.w3.org/1999/xlink" x="0px" y="0px"
	 viewBox="0 0 57.7 68.6" width="58" height="69" style="enable-background:new 0 0 57.7 68.6;" xml:space="preserve">
<style type="text/css">
	.st0{fill:#826550;}
</style>
<g id="XMLID_1_">
	<g>
		<path class="st0" d="M49.8,12.4c0.9-4,0.8-8.6,2.2-12.4c0.1,0,0.2,0,0.2,0c1.7,5.1,0.8,11.4,0.1,16.8c-0.3,1.9-0.6,3.7-0.7,5.4
			c-0.8,11.1,7,23.1,6,28.9c-0.9,7.5-8.4,9.4-14.2,12.4c-4.3,2.2-8.3,5-13.3,5.2c-0.4,0-0.9,0-1.3,0s-0.9,0-1.3,0
			c-5-0.2-9-2.9-13.3-5.2C8.5,60.5,1,58.7,0.1,51.1c-0.9-5.8,6.8-17.9,6-28.9c-0.1-1.7-0.5-3.5-0.7-5.4C4.7,11.4,3.8,5.1,5.5,0
			c0.1,0,0.2,0,0.2,0C7.1,3.7,7,8.4,7.9,12.4c0.7,3,1.8,5.7,3.2,7.6c0.5,0.7,1.1,1.5,1.9,1.8c0.7-3.9,4.3-4.9,7.7-6.4
			c2.1-0.9,4-2,6.1-2.2c0.8-0.1,1.5,0.2,2,0.2c0.5,0,1.2-0.3,2-0.2c2.2,0.1,4,1.3,6.1,2.2c3.4,1.4,7,2.4,7.7,6.4
			c0.9-0.3,1.4-1.1,1.9-1.8C48,18,49.1,15.3,49.8,12.4z M36,25.4c-0.7-2.1-4-1.6-7.1-1.6c0,0,0,0-0.1,0s0,0-0.1,0
			c-3,0-6.4-0.5-7.1,1.6c2.1,0.4,4.6,0.5,7.2,0.5C31.4,26,33.9,25.9,36,25.4z"/>
	</g>
	<g>
	</g>
</g>
</svg>
