<?xml version="1.0" encoding="utf-8"?>
<!-- Generator: Adobe Illustrator 22.1.0, SVG Export Plug-In . SVG Version: 6.00 Build 0)  -->
<svg version="1.1" id="Слой_1" xmlns="http://www.w3.org/2000/svg" xmlns:xlink="http://www.w3.org/1999/xlink" x="0px" y="0px"
	 viewBox="0 0 58 57" style="enable-background:new 0 0 58 57;" xml:space="preserve">
<style type="text/css">
	.st0{clip-path:url(#SVGID_2_);}
	.st1{clip-path:url(#SVGID_4_);fill:#ffffff;}
</style>
<g>
	<g>
		<defs>
			<rect id="SVGID_1_" x="0" y="0" width="58" height="57"/>
		</defs>
		<clipPath id="SVGID_2_">
			<use xlink:href="#SVGID_1_"  style="overflow:visible;"/>
		</clipPath>
		<g class="st0">
			<defs>
				<rect id="SVGID_3_" x="0" y="0" width="58" height="57"/>
			</defs>
			<clipPath id="SVGID_4_">
				<use xlink:href="#SVGID_3_"  style="overflow:visible;"/>
			</clipPath>
			<path class="st1" d="M29.4,8.6V0.3c0-0.2-0.2-0.4-0.4-0.4c-0.2,0-0.4,0.2-0.4,0.4v8.3c0.1,0,0.3,0,0.4,0c0.1,0,0.3,0,0.4,0"/>
			<path class="st1" d="M18.8,11.5c0.2-0.1,0.5-0.3,0.7-0.4l-4.2-7.2c-0.1-0.2-0.4-0.3-0.6-0.1c-0.2,0.1-0.3,0.4-0.1,0.6L18.8,11.5z
				"/>
			<path class="st1" d="M4.4,14.1c-0.1,0.2,0,0.4,0.1,0.6l7.2,4.2c0.1-0.2,0.3-0.5,0.4-0.7l-7.2-4.2C4.7,13.8,4.5,13.9,4.4,14.1"/>
			<path class="st1" d="M43.5,3.4c-0.2-0.1-0.4,0-0.6,0.1l-4.4,7.6c0.2,0.1,0.5,0.3,0.7,0.4L43.7,4C43.8,3.8,43.7,3.5,43.5,3.4"/>
			<path class="st1" d="M53.9,14.5c0.2-0.1,0.3-0.4,0.1-0.6c-0.1-0.2-0.4-0.3-0.6-0.1l-7.6,4.4c0.1,0.2,0.3,0.5,0.4,0.7L53.9,14.5z"
				/>
			<path class="st1" d="M9.3,28.5c0-0.1,0-0.3,0-0.4H0.5c-0.2,0-0.4,0.2-0.4,0.4c0,0.2,0.2,0.4,0.4,0.4h8.8
				C9.3,28.8,9.3,28.6,9.3,28.5"/>
			<path class="st1" d="M57.6,28.1h-8.9c0,0.1,0,0.3,0,0.4c0,0.1,0,0.3,0,0.4h8.8c0.2,0,0.4-0.2,0.4-0.4
				C57.9,28.3,57.7,28.1,57.6,28.1"/>
			<path class="st1" d="M53.5,42.1l-7.2-4.2c-0.1,0.2-0.3,0.5-0.4,0.7l7.2,4.2c0.1,0,0.1,0.1,0.2,0.1c0.1,0,0.3-0.1,0.4-0.2
				C53.8,42.4,53.7,42.2,53.5,42.1"/>
			<path class="st1" d="M4.1,42.2c-0.2,0.1-0.3,0.4-0.1,0.6C4,42.9,4.2,43,4.3,43c0.1,0,0.1,0,0.2-0.1l7.6-4.4
				c-0.1-0.2-0.3-0.5-0.4-0.7L4.1,42.2z"/>
			<path class="st1" d="M39.2,45.2c-0.2,0.1-0.5,0.3-0.7,0.4l4.2,7.2c0.1,0.1,0.2,0.2,0.4,0.2c0.1,0,0.1,0,0.2-0.1
				c0.2-0.1,0.3-0.4,0.1-0.6L39.2,45.2z"/>
			<path class="st1" d="M14.3,52.7c-0.1,0.2,0,0.4,0.1,0.6c0.1,0,0.1,0.1,0.2,0.1c0.1,0,0.3-0.1,0.4-0.2l4.4-7.6
				c-0.2-0.1-0.5-0.3-0.7-0.4L14.3,52.7z"/>
			<path class="st1" d="M28.6,48v8.3c0,0.2,0.2,0.4,0.4,0.4c0.2,0,0.4-0.2,0.4-0.4V48c-0.1,0-0.3,0-0.4,0C28.9,48,28.7,48,28.6,48"
				/>
			<path class="st1" d="M42.8,21.1c0.3-0.2,0.4-0.5,0.2-0.8c-0.2-0.3-0.5-0.4-0.8-0.2l-11.6,6.7c-0.4-0.4-1-0.7-1.6-0.7
				c-0.6,0-1.2,0.3-1.6,0.7l-8.3-4.8c-0.3-0.2-0.7-0.1-0.8,0.2c-0.2,0.3-0.1,0.7,0.2,0.8l8.3,4.8c0,0.2-0.1,0.4-0.1,0.6
				c0,1.3,1,2.3,2.3,2.3c1.3,0,2.3-1,2.3-2.3c0-0.2,0-0.4-0.1-0.6L42.8,21.1z M30.8,26.9C30.8,26.9,30.8,26.9,30.8,26.9
				C30.8,26.9,30.8,26.9,30.8,26.9 M31,27.2C31,27.2,31,27.2,31,27.2C31,27.2,31,27.2,31,27.2 M27,27.2C27,27.2,27,27.2,27,27.2
				C27,27.2,27,27.2,27,27.2 M27.2,26.9C27.2,26.9,27.2,26.9,27.2,26.9C27.2,26.9,27.2,26.9,27.2,26.9 M29,29.4
				c-0.6,0-1.1-0.5-1.1-1.1c0-0.6,0.5-1.1,1.1-1.1c0.6,0,1.1,0.5,1.1,1.1C30.1,28.9,29.6,29.4,29,29.4"/>
		</g>
	</g>
</g>
</svg>
